<svg width="37" height="37" viewBox="0 0 37 37" fill="none" xmlns="http://www.w3.org/2000/svg">
<path d="M20 33.5H8C5 33.5 3.5 32 3.5 29V17C3.5 14 5 12.5 8 12.5H15.5V29C15.5 32 17 33.5 20 33.5Z" stroke="white" stroke-width="3" stroke-miterlimit="10" stroke-linecap="round" stroke-linejoin="round"/>
<path d="M15.665 6.5C15.545 6.95 15.5 7.445 15.5 8V12.5H8V9.5C8 7.85 9.35 6.5 11 6.5H15.665Z" stroke="white" stroke-width="3" stroke-miterlimit="10" stroke-linecap="round" stroke-linejoin="round"/>
<path d="M21.5 12.5V20" stroke="white" stroke-width="3" stroke-miterlimit="10" stroke-linecap="round" stroke-linejoin="round"/>
<path d="M27.5 12.5V20" stroke="white" stroke-width="3" stroke-miterlimit="10" stroke-linecap="round" stroke-linejoin="round"/>
<path d="M26 26H23C22.175 26 21.5 26.675 21.5 27.5V33.5H27.5V27.5C27.5 26.675 26.825 26 26 26Z" stroke="white" stroke-width="3" stroke-miterlimit="10" stroke-linecap="round" stroke-linejoin="round"/>
<path d="M9.5 20V26" stroke="white" stroke-width="3" stroke-miterlimit="10" stroke-linecap="round" stroke-linejoin="round"/>
<path d="M15.5 29V8C15.5 5 17 3.5 20 3.5H29C32 3.5 33.5 5 33.5 8V29C33.5 32 32 33.5 29 33.5H20C17 33.5 15.5 32 15.5 29Z" stroke="white" stroke-width="3" stroke-miterlimit="10" stroke-linecap="round" stroke-linejoin="round"/>
</svg>
