<svg width="37" height="37" viewBox="0 0 37 37" fill="none" xmlns="http://www.w3.org/2000/svg">
<path d="M23.765 4.745H13.235C9.5 4.745 8.675 6.605 8.195 8.885L6.5 17H30.5L28.805 8.885C28.325 6.605 27.5 4.745 23.765 4.745Z" stroke="white" stroke-width="3" stroke-linecap="round" stroke-linejoin="round"/>
<path d="M33.4846 30.23C33.6496 31.985 32.2396 33.5 30.4396 33.5H27.6196C25.9996 33.5 25.7746 32.81 25.4896 31.955L25.1896 31.055C24.7696 29.825 24.4996 29 22.3396 29H14.6596C12.4996 29 12.1846 29.93 11.8096 31.055L11.5096 31.955C11.2246 32.81 10.9996 33.5 9.3796 33.5H6.5596C4.7596 33.5 3.3496 31.985 3.5146 30.23L4.3546 21.095C4.5646 18.845 4.9996 17 8.9296 17H28.0696C31.9996 17 32.4346 18.845 32.6446 21.095L33.4846 30.23Z" stroke="white" stroke-width="3" stroke-linecap="round" stroke-linejoin="round"/>
<path d="M6.5 12.5H5" stroke="white" stroke-width="3" stroke-linecap="round" stroke-linejoin="round"/>
<path d="M32 12.5H30.5" stroke="white" stroke-width="3" stroke-linecap="round" stroke-linejoin="round"/>
<path d="M18.5 5V8" stroke="white" stroke-width="3" stroke-linecap="round" stroke-linejoin="round"/>
<path d="M16.25 8H20.75" stroke="white" stroke-width="3" stroke-linecap="round" stroke-linejoin="round"/>
<path d="M9.5 23H14" stroke="white" stroke-width="3" stroke-linecap="round" stroke-linejoin="round"/>
<path d="M23 23H27.5" stroke="white" stroke-width="3" stroke-linecap="round" stroke-linejoin="round"/>
</svg>
