<svg width="42" height="43" viewBox="0 0 42 43" fill="none" xmlns="http://www.w3.org/2000/svg">
<path d="M5.9375 6.5C3.77844 6.5 2 8.27844 2 10.4375V32.75H6.14225C6.72763 35.0062 8.75675 36.6875 11.1875 36.6875C13.6182 36.6875 15.6474 35.0062 16.2327 32.75H25.8298C26.4151 35.0062 28.4443 36.6875 30.875 36.6875C33.3057 36.6875 35.3349 35.0062 35.9202 32.75H40.0625V19.0501C40.056 18.3095 39.8428 17.5853 39.4469 16.9593L34.0749 8.34538C33.7233 7.78057 33.2335 7.31472 32.6517 6.99183C32.07 6.66894 31.4156 6.49967 30.7503 6.5H5.9375ZM5.9375 9.125H12.5V17H4.625V10.4375C4.625 9.69856 5.19988 9.125 5.9375 9.125ZM15.125 9.125H23V17H15.125V9.125ZM25.625 9.125H30.7516C31.2084 9.125 31.6179 9.356 31.8594 9.74056L36.3717 17H25.625V9.125ZM4.625 19.625H37.4375V22.25H33.5V24.875H37.4375V30.125H35.9202C35.3349 27.8688 33.3057 26.1875 30.875 26.1875C28.4443 26.1875 26.4151 27.8688 25.8298 30.125H16.2327C15.6474 27.8688 13.6182 26.1875 11.1875 26.1875C8.75675 26.1875 6.72763 27.8688 6.14225 30.125H4.625V19.625ZM11.1875 28.8125C12.6536 28.8125 13.8125 29.9714 13.8125 31.4375C13.8125 32.9036 12.6536 34.0625 11.1875 34.0625C9.72144 34.0625 8.5625 32.9036 8.5625 31.4375C8.5625 29.9714 9.72144 28.8125 11.1875 28.8125ZM30.875 28.8125C32.3411 28.8125 33.5 29.9714 33.5 31.4375C33.5 32.9036 32.3411 34.0625 30.875 34.0625C29.4089 34.0625 28.25 32.9036 28.25 31.4375C28.25 29.9714 29.4089 28.8125 30.875 28.8125Z" fill="white"/>
</svg>
