<svg width="37" height="37" viewBox="0 0 37 37" fill="none" xmlns="http://www.w3.org/2000/svg">
<path d="M29.75 19.25C29.75 17.18 31.43 15.5 33.5 15.5V14C33.5 8 32 6.5 26 6.5H11C5 6.5 3.5 8 3.5 14V14.75C5.57 14.75 7.25 16.43 7.25 18.5C7.25 20.57 5.57 22.25 3.5 22.25V23C3.5 29 5 30.5 11 30.5H26C32 30.5 33.5 29 33.5 23C31.43 23 29.75 21.32 29.75 19.25Z" stroke="white" stroke-width="3" stroke-linecap="round" stroke-linejoin="round"/>
<path d="M15.5 6.5L15.5 30.5" stroke="white" stroke-width="3" stroke-linecap="round" stroke-linejoin="round" stroke-dasharray="5 5"/>
</svg>
